<?xml version="1.0" standalone="no"?>
<!DOCTYPE svg PUBLIC "-//W3C//DTD SVG 20010904//EN"
 "http://www.w3.org/TR/2001/REC-SVG-20010904/DTD/svg10.dtd">
<svg version="1.0" xmlns="http://www.w3.org/2000/svg"
 width="1192.000000pt" height="908.000000pt" viewBox="0 0 1192.000000 908.000000"
 preserveAspectRatio="xMidYMid meet">

<g transform="translate(0.000000,908.000000) scale(0.100000,-0.100000)"
fill="#000000" stroke="none">
<path d="M2640 8936 c-14 -9 -40 -22 -58 -31 -18 -9 -35 -22 -38 -30 -3 -8
-20 -17 -38 -20 -17 -4 -46 -21 -64 -39 l-31 -33 -2 -215 -1 -215 105 -107
c57 -58 110 -106 117 -106 6 0 23 9 37 20 14 11 32 20 40 20 8 0 28 11 45 25
16 14 37 25 45 25 18 0 93 69 93 86 0 6 10 24 23 40 21 27 22 36 22 225 0 187
-1 199 -21 221 -12 13 -26 37 -31 53 -7 21 -19 33 -39 38 -16 5 -47 18 -69 28
-58 28 -105 33 -135 15z m8 -259 c1 -65 -2 -125 -7 -136 -6 -10 -23 -22 -38
-26 -16 -3 -38 -16 -50 -27 -19 -17 -25 -19 -38 -8 -12 10 -15 37 -15 134 0
128 5 146 45 146 12 0 30 9 40 20 11 12 28 20 39 18 20 -3 21 -11 24 -121z
m171 97 c19 -25 21 -40 21 -193 0 -126 -3 -172 -14 -186 -13 -18 -14 -18 -25
3 -6 11 -11 28 -11 36 0 8 -10 25 -22 36 -22 20 -23 30 -26 163 -1 78 0 148 3
155 8 22 52 13 74 -14z m-129 -360 c14 -35 12 -108 -2 -122 -7 -7 -26 -12 -43
-12 -23 0 -37 8 -55 31 -21 30 -22 34 -7 58 15 26 72 71 89 71 5 0 13 -12 18
-26z"/>
<path d="M5535 8199 c-27 -4 -140 -12 -250 -18 -149 -6 -210 -13 -239 -26 -22
-9 -82 -20 -135 -24 -61 -5 -105 -13 -121 -24 -14 -9 -56 -19 -95 -23 -38 -3
-83 -14 -100 -24 -16 -10 -56 -20 -88 -24 -32 -3 -70 -14 -84 -23 -14 -9 -50
-20 -80 -24 -30 -4 -63 -15 -73 -24 -9 -9 -41 -19 -69 -24 -28 -4 -59 -15 -69
-23 -9 -9 -33 -19 -52 -23 -19 -4 -49 -15 -66 -25 -17 -10 -47 -21 -65 -25
-19 -4 -45 -16 -58 -26 -13 -11 -34 -19 -46 -19 -12 0 -33 -9 -47 -19 -13 -11
-42 -24 -65 -30 -22 -6 -46 -18 -53 -26 -7 -8 -17 -15 -23 -15 -9 0 -152 -69
-187 -90 -13 -8 -196 -111 -268 -150 -15 -8 -51 -31 -81 -50 -29 -19 -68 -44
-86 -55 -17 -11 -48 -31 -67 -45 -20 -14 -62 -43 -94 -65 -33 -22 -85 -60
-116 -85 -31 -25 -73 -56 -93 -70 -20 -14 -44 -32 -53 -41 -9 -9 -78 -67 -152
-128 -197 -163 -540 -507 -645 -646 -21 -27 -55 -68 -76 -90 -49 -51 -149
-182 -149 -194 0 -6 -8 -16 -18 -23 -9 -7 -25 -24 -34 -38 -10 -14 -31 -43
-47 -65 -16 -22 -53 -78 -83 -123 -29 -46 -65 -100 -81 -119 -15 -20 -27 -41
-27 -48 0 -7 -7 -18 -15 -25 -13 -11 -35 -46 -127 -208 -14 -26 -47 -87 -73
-137 -25 -49 -52 -101 -60 -115 -7 -14 -18 -36 -24 -50 -6 -14 -15 -32 -20
-40 -5 -8 -18 -35 -29 -60 -11 -25 -34 -75 -51 -112 -17 -37 -31 -74 -31 -83
0 -9 -9 -28 -20 -43 -11 -15 -23 -46 -27 -67 -3 -22 -15 -51 -25 -65 -10 -14
-22 -49 -28 -78 -5 -28 -19 -66 -32 -82 -21 -29 -25 -30 -99 -30 -74 0 -79 -1
-113 -34 l-36 -33 0 -90 c0 -75 3 -95 20 -116 11 -14 20 -29 20 -33 0 -4 9
-18 21 -30 32 -35 47 -88 38 -142 -4 -26 -8 -69 -9 -97 0 -28 -10 -69 -22 -95
-15 -34 -23 -77 -29 -170 -5 -69 -13 -147 -19 -175 -25 -117 -31 -273 -27
-625 4 -296 8 -375 21 -420 9 -30 20 -111 25 -178 7 -86 15 -132 27 -149 9
-15 21 -62 26 -107 5 -44 15 -90 23 -103 8 -12 21 -50 29 -85 8 -35 29 -101
46 -148 18 -47 37 -108 43 -136 7 -28 18 -58 25 -66 7 -9 17 -42 22 -73 6 -36
17 -65 30 -77 11 -10 20 -29 20 -42 0 -13 9 -34 19 -47 10 -14 26 -40 35 -59
48 -102 179 -274 285 -374 76 -73 282 -236 296 -236 4 0 20 -11 37 -25 16 -14
37 -25 47 -25 9 0 32 -11 51 -25 19 -14 41 -25 51 -25 9 0 27 -8 40 -19 13
-10 39 -22 58 -26 19 -4 48 -16 65 -26 17 -10 45 -19 61 -19 17 0 50 -10 75
-21 25 -11 79 -24 120 -29 41 -5 97 -16 124 -25 68 -21 411 -21 482 0 27 7 85
18 129 24 44 5 100 19 125 30 25 11 61 21 81 21 20 0 47 8 60 19 13 10 41 23
61 30 20 7 41 18 48 25 6 8 26 17 44 20 19 4 40 13 47 22 7 8 26 22 43 29 17
8 38 19 46 25 8 5 31 16 50 25 35 15 44 20 111 62 19 13 42 23 50 23 8 0 30
11 49 25 19 14 42 25 51 25 10 0 31 11 47 25 17 14 38 25 49 25 11 0 34 11 53
25 19 14 41 25 50 25 9 0 25 9 35 20 10 11 33 22 51 26 18 3 40 15 50 25 9 10
25 19 34 19 10 0 34 11 54 25 20 14 48 28 61 31 14 3 27 10 30 14 4 7 200 108
323 168 15 7 34 17 42 23 8 5 38 20 65 34 28 13 57 29 65 34 8 5 31 16 50 25
19 9 42 20 50 26 8 5 26 15 40 20 14 6 66 33 115 60 50 26 131 69 180 95 50
25 101 53 115 61 14 7 32 14 41 14 9 0 24 9 33 19 10 11 31 23 46 26 15 3 35
14 45 25 9 10 31 21 49 24 18 4 41 15 51 26 10 11 26 20 35 20 9 0 31 11 49
24 19 14 46 28 62 31 16 4 32 11 35 17 3 5 25 18 48 29 22 10 48 23 56 28 8 5
29 16 45 24 17 7 39 19 50 25 11 7 31 17 45 23 14 5 70 34 125 63 55 30 163
86 240 125 208 107 303 157 317 168 7 6 30 16 50 22 20 7 41 18 48 26 6 7 23
16 38 20 15 3 36 15 47 24 11 10 34 22 50 25 17 4 39 16 50 25 11 10 34 22 50
25 17 4 38 16 48 27 10 10 26 19 37 19 10 0 32 11 48 25 17 14 36 25 44 25 8
0 29 11 48 25 19 14 41 25 51 25 9 0 27 8 40 18 13 10 58 35 99 56 82 41 127
65 150 78 8 5 38 20 65 33 28 14 57 29 65 35 8 5 31 16 50 25 19 8 42 19 50
25 8 5 26 15 40 21 14 5 70 34 125 64 55 29 141 74 192 100 51 25 95 50 98 54
2 5 17 12 32 16 15 3 38 14 52 24 14 10 37 22 51 26 14 4 34 15 45 25 11 10
34 21 51 24 18 4 40 16 50 27 9 10 25 19 34 19 9 0 31 11 49 24 19 14 46 28
62 31 16 4 31 10 34 15 3 5 45 29 93 53 48 24 125 64 172 87 47 24 92 49 100
55 8 7 32 18 52 24 20 7 42 18 48 26 6 7 24 17 40 20 15 3 35 14 45 25 9 10
31 21 49 24 18 4 41 15 51 26 10 11 26 20 35 20 9 0 31 11 50 25 19 14 41 25
51 25 9 0 27 8 40 18 13 11 63 38 111 61 48 23 90 46 93 50 2 5 17 12 32 16
15 3 39 15 54 26 15 10 33 19 40 19 7 0 42 14 78 32 67 32 324 234 371 292 65
79 140 193 140 212 0 12 9 33 20 47 11 14 23 47 26 74 4 26 15 62 25 78 9 17
21 58 25 93 7 69 17 82 43 58 10 -9 31 -16 48 -16 17 0 43 -10 58 -22 17 -13
47 -23 79 -26 30 -3 65 -14 86 -28 19 -13 40 -24 46 -24 6 0 19 -9 28 -19 10
-11 29 -22 44 -26 14 -3 39 -17 55 -31 16 -13 39 -24 52 -24 13 0 28 -8 33
-17 9 -16 38 -34 109 -68 18 -8 36 -20 40 -27 19 -30 86 -78 108 -78 14 0 29
-8 35 -20 9 -16 21 -20 65 -20 57 0 57 0 140 78 37 35 45 74 26 124 -15 38
-144 163 -207 198 -32 19 -69 44 -81 57 -12 13 -30 23 -41 23 -24 0 -42 19
-42 45 0 33 20 45 75 45 39 0 56 -5 70 -20 11 -12 37 -22 66 -26 28 -4 55 -14
65 -25 14 -16 32 -19 101 -19 l84 0 55 57 c61 64 61 69 10 141 -49 70 -118
123 -172 133 -26 5 -57 18 -69 29 -15 14 -35 20 -66 20 -27 0 -57 8 -78 21
-25 15 -60 23 -128 28 -66 5 -97 11 -103 21 -7 12 -46 16 -187 21 -158 4 -182
7 -218 27 -48 27 -150 30 -215 7 -43 -15 -60 -13 -60 7 0 6 -11 34 -24 62 -13
28 -26 77 -30 109 -3 32 -13 71 -21 86 -7 15 -21 54 -29 87 -19 79 -43 150
-67 200 -10 23 -19 47 -19 55 0 8 -11 34 -24 59 -13 25 -27 59 -30 76 -4 18
-16 40 -27 50 -10 9 -19 24 -19 33 0 32 -172 350 -218 402 -7 8 -29 40 -50 71
-52 78 -203 260 -277 333 -33 33 -114 105 -181 160 -104 86 -149 119 -259 187
-94 59 -125 80 -125 86 0 15 -108 60 -158 66 -29 3 -68 14 -85 24 -18 11 -50
23 -72 27 -21 4 -51 13 -66 20 -15 8 -57 19 -95 25 -38 6 -91 18 -119 26 -34
11 -117 18 -260 23 l-210 7 -45 33 c-25 17 -61 43 -80 56 -19 13 -53 38 -75
54 -22 17 -56 40 -75 51 -19 11 -48 29 -65 40 -16 11 -46 28 -65 37 -19 9 -44
25 -55 34 -11 9 -37 22 -57 28 -20 7 -42 18 -48 26 -7 8 -27 17 -46 21 -18 3
-38 12 -45 20 -6 8 -30 19 -52 25 -23 6 -52 19 -65 30 -14 10 -34 19 -46 19
-12 0 -42 11 -68 25 -26 14 -57 25 -70 25 -13 0 -40 9 -61 20 -21 11 -59 23
-85 27 -26 3 -60 13 -77 23 -16 10 -59 21 -95 24 -36 4 -76 14 -90 23 -14 10
-63 20 -118 25 -51 4 -110 15 -130 24 -26 11 -92 19 -217 25 -99 5 -210 13
-247 19 -78 12 -281 11 -353 -1z m521 -190 c16 -6 88 -15 159 -19 92 -5 140
-12 164 -24 19 -10 67 -20 110 -23 49 -3 88 -12 110 -25 19 -10 63 -23 97 -27
35 -4 71 -14 81 -23 10 -9 40 -19 68 -23 27 -4 60 -15 73 -26 14 -10 36 -19
51 -19 14 0 40 -9 58 -19 17 -11 51 -25 74 -31 24 -7 54 -20 67 -31 14 -10 31
-19 38 -19 12 0 80 -31 134 -62 8 -5 33 -18 55 -29 22 -11 65 -36 95 -54 30
-19 69 -41 87 -50 34 -18 49 -53 30 -72 -7 -7 -49 -17 -94 -22 -46 -6 -96 -17
-112 -25 -15 -8 -56 -20 -89 -25 -33 -5 -71 -16 -84 -25 -13 -8 -41 -18 -62
-22 -22 -4 -54 -15 -70 -25 -17 -9 -47 -20 -66 -24 -19 -4 -46 -16 -59 -26
-13 -11 -33 -19 -45 -19 -12 0 -37 -11 -56 -25 -19 -14 -42 -25 -52 -25 -9 0
-25 -9 -35 -19 -10 -11 -31 -23 -48 -27 -16 -3 -39 -15 -50 -24 -11 -10 -31
-21 -45 -25 -14 -4 -35 -16 -47 -27 -42 -39 -51 -21 -54 119 -4 115 -6 131
-26 157 -13 16 -23 37 -23 47 0 10 -22 40 -50 67 -56 56 -61 79 -25 118 34 37
35 113 3 154 -13 16 -30 39 -40 52 -9 15 -34 29 -60 35 -23 6 -57 17 -75 24
-28 11 -37 11 -68 -4 -20 -9 -48 -17 -62 -17 -27 0 -103 -62 -103 -85 0 -6 -9
-28 -21 -49 -20 -38 -21 -69 -4 -122 5 -17 1 -23 -22 -32 -16 -5 -55 -34 -86
-65 -43 -42 -57 -62 -57 -84 0 -15 -8 -44 -18 -63 -27 -51 -33 -108 -17 -155
20 -55 19 -65 -9 -65 -14 0 -37 -10 -51 -23 l-27 -22 -70 67 -71 68 -67 0
c-60 0 -72 -3 -105 -30 -21 -17 -43 -36 -49 -44 -6 -8 -37 -18 -68 -21 -49 -6
-59 -5 -64 9 -4 10 1 25 10 35 10 10 30 45 46 77 28 56 29 65 30 197 0 173 -9
197 -115 301 l-59 58 -62 -4 c-53 -3 -67 -9 -100 -38 l-39 -34 -5 -191 c-5
-178 -7 -193 -28 -219 -12 -16 -22 -39 -22 -52 0 -26 -55 -94 -75 -94 -15 0
-25 22 -25 53 0 13 -23 46 -56 81 -42 44 -66 61 -98 68 -59 13 -151 1 -184
-26 -15 -12 -39 -29 -53 -38 -14 -9 -33 -37 -43 -62 -16 -42 -20 -45 -44 -40
-42 10 -47 20 -51 111 -3 77 -1 88 20 117 20 25 25 46 27 112 l4 81 -39 36
c-32 31 -45 37 -84 37 -30 0 -55 -7 -70 -18 -13 -11 -37 -22 -53 -26 -32 -8
-67 -41 -111 -105 l-30 -44 0 -203 c0 -191 1 -204 21 -231 12 -16 25 -44 29
-63 6 -31 36 -86 71 -130 16 -20 69 -72 149 -145 l65 -60 0 -72 c0 -71 0 -72
-45 -120 -25 -26 -50 -63 -56 -81 -14 -43 -26 -31 -39 38 -6 30 -17 60 -25 66
-8 6 -20 26 -26 43 -13 37 -41 51 -103 51 -46 0 -68 16 -81 60 -21 74 -95 170
-131 170 -32 0 -64 -45 -64 -90 0 -23 -9 -51 -25 -74 -33 -48 -35 -127 -5
-153 11 -10 20 -28 20 -40 0 -19 -5 -23 -29 -23 -44 0 -61 -23 -61 -85 0 -71
6 -82 50 -105 52 -26 123 -110 108 -127 -6 -7 -16 -13 -24 -13 -20 0 -82 -58
-90 -83 -11 -37 -34 -55 -77 -63 -23 -3 -53 -15 -66 -25 -13 -11 -33 -19 -45
-19 -12 0 -37 -8 -56 -19 -19 -10 -66 -21 -105 -25 -111 -11 -192 -58 -226
-130 -11 -23 -26 -52 -34 -66 -22 -38 -20 -97 5 -105 14 -4 20 -15 20 -35 0
-39 -14 -45 -29 -13 -24 52 -82 112 -126 129 -52 19 -83 14 -131 -23 -32 -24
-34 -29 -34 -85 0 -64 -7 -75 -88 -135 -37 -28 -44 -28 -67 -3 -14 15 -31 20
-71 20 -48 0 -55 -3 -78 -33 -15 -19 -26 -46 -26 -60 0 -42 -17 -74 -60 -113
-63 -57 -58 -85 31 -166 71 -66 71 -66 69 -115 -4 -75 -2 -80 32 -105 23 -16
52 -25 93 -28 70 -6 79 -23 26 -52 -46 -26 -135 -99 -169 -139 -25 -30 -27
-40 -27 -115 1 -56 6 -92 18 -115 26 -52 64 -160 71 -200 4 -20 15 -47 26 -59
27 -32 28 -105 1 -120 -12 -6 -90 -10 -188 -10 l-168 1 -27 36 c-38 50 -39
120 -3 151 14 12 25 28 25 34 0 17 46 83 95 136 38 41 41 48 50 135 7 62 7
111 0 149 -9 52 -14 59 -55 87 -40 27 -53 31 -119 31 -69 0 -77 -2 -128 -37
-30 -21 -68 -45 -85 -54 -46 -24 -138 -120 -138 -144 0 -20 -59 -95 -75 -95
-5 0 -26 20 -49 43 -23 24 -58 49 -78 56 -20 7 -42 19 -48 27 -19 21 -111 19
-141 -5 -13 -10 -35 -22 -49 -26 -14 -4 -51 -32 -83 -63 l-57 -56 0 -92 c0
-114 -3 -124 -44 -124 -24 0 -45 14 -96 61 -36 34 -76 68 -88 77 -21 14 -23
21 -18 56 7 42 40 136 76 214 11 23 20 51 20 61 0 10 11 35 25 55 14 20 25 44
25 52 0 14 50 131 71 164 5 8 14 26 19 40 36 89 231 445 304 555 23 34 52 81
66 104 14 24 35 55 48 71 12 15 22 32 22 38 0 5 7 15 15 22 8 7 33 40 56 74
163 241 489 607 759 855 174 158 192 174 270 233 91 69 128 98 148 118 8 8 25
22 37 30 28 19 91 63 131 92 17 13 60 42 95 65 35 23 71 49 80 58 9 8 20 15
26 15 6 0 41 21 79 46 38 25 84 54 104 65 82 43 118 63 165 89 60 35 192 100
201 100 3 0 18 8 32 19 15 10 38 22 52 26 23 6 71 27 176 76 23 10 48 19 55
19 8 0 31 9 51 20 21 11 59 25 85 30 26 6 55 18 64 26 9 8 39 18 67 23 28 4
61 15 74 23 13 9 48 19 78 23 30 4 69 15 85 25 17 9 60 20 97 23 38 4 79 14
94 23 17 11 58 20 118 24 58 5 105 14 126 26 27 13 68 19 175 24 77 3 147 10
154 15 42 25 655 29 717 4z m235 -325 c9 -11 13 -39 11 -82 -1 -55 -6 -70 -27
-92 -14 -14 -25 -36 -25 -47 0 -26 25 -53 50 -53 10 0 33 -17 52 -38 28 -31
36 -50 41 -95 4 -31 15 -72 24 -91 15 -33 15 -38 -1 -81 -10 -25 -20 -73 -23
-105 -4 -36 -10 -60 -17 -60 -7 0 -46 -31 -87 -70 -41 -38 -79 -70 -86 -70 -6
0 -21 12 -32 26 -17 21 -21 41 -21 99 0 83 -8 94 -70 102 -33 5 -45 2 -65 -17
-29 -28 -55 -20 -55 16 0 15 -10 43 -22 62 -16 26 -23 56 -26 116 l-4 81 57
63 c39 41 65 62 80 62 13 0 36 11 52 24 15 12 38 28 50 35 19 10 21 15 12 39
-6 15 -22 38 -36 51 -22 21 -25 29 -19 69 9 66 18 72 101 72 55 0 76 -4 86
-16z m-1184 -89 c12 -8 27 -32 34 -52 7 -21 20 -51 30 -68 24 -39 24 -101 0
-145 -10 -19 -21 -53 -25 -75 -4 -22 -13 -46 -19 -54 -12 -14 -43 -70 -72
-131 -10 -19 -25 -40 -35 -47 -10 -7 -21 -24 -24 -37 -3 -14 -35 -55 -70 -91
-47 -48 -65 -75 -69 -101 -4 -20 -14 -45 -22 -55 -9 -9 -24 -33 -33 -51 -15
-29 -23 -34 -72 -41 -30 -5 -64 -17 -75 -27 -29 -25 -60 -40 -86 -40 -12 0
-30 -7 -40 -16 -17 -15 -23 -15 -81 1 -52 14 -68 23 -90 55 -16 21 -28 51 -28
66 0 32 -47 82 -124 132 -50 32 -95 83 -116 132 -6 14 -18 33 -27 42 -9 10
-20 41 -24 69 -5 28 -15 59 -24 69 -11 12 -15 40 -15 114 0 83 3 102 20 123
11 14 20 37 20 52 0 30 62 86 86 77 22 -8 18 -94 -6 -139 -24 -44 -26 -116 -5
-156 8 -16 17 -48 21 -72 8 -52 46 -122 89 -164 29 -28 34 -30 130 -33 118 -4
146 7 125 49 -7 13 -24 36 -38 51 -23 25 -25 32 -16 75 7 39 14 50 39 62 17 7
40 23 53 35 21 19 25 19 50 5 39 -21 52 -55 52 -134 0 -42 5 -76 12 -83 8 -8
46 -12 103 -12 l92 0 60 58 c74 70 113 135 113 188 0 21 12 62 25 89 22 44 25
63 25 166 0 137 6 149 57 114z m3268 -304 c33 -11 88 -22 121 -25 34 -3 77
-14 95 -25 19 -10 56 -21 82 -25 27 -3 60 -15 74 -26 14 -11 36 -20 48 -20 12
0 33 -8 46 -19 13 -10 38 -21 55 -25 18 -4 40 -16 50 -27 9 -10 25 -19 35 -19
10 0 31 -11 47 -25 17 -14 34 -25 38 -25 16 0 174 -117 279 -205 75 -63 188
-181 257 -267 98 -124 132 -169 153 -203 102 -172 121 -204 141 -245 9 -19 25
-45 35 -59 10 -13 19 -31 19 -41 0 -10 8 -28 19 -41 10 -13 23 -40 30 -60 6
-20 20 -53 31 -74 11 -22 20 -45 20 -52 0 -7 9 -30 20 -50 11 -21 20 -45 20
-54 0 -10 11 -41 25 -71 14 -29 25 -66 25 -83 0 -16 9 -45 20 -63 12 -19 25
-64 29 -101 5 -37 16 -82 25 -100 9 -17 21 -67 26 -109 5 -42 17 -99 26 -127
14 -41 17 -86 16 -251 0 -177 -3 -207 -20 -245 -11 -24 -22 -60 -26 -80 -4
-21 -13 -42 -21 -49 -8 -6 -19 -28 -26 -48 -6 -20 -18 -44 -25 -53 -8 -8 -19
-31 -26 -50 -13 -38 -46 -72 -161 -169 -69 -58 -149 -108 -272 -171 -22 -11
-62 -32 -90 -48 -27 -15 -90 -49 -140 -75 -49 -26 -97 -51 -105 -57 -8 -5 -26
-14 -40 -19 -14 -6 -70 -35 -125 -65 -55 -29 -137 -72 -181 -95 -45 -22 -87
-47 -94 -55 -7 -8 -20 -15 -30 -15 -9 0 -33 -11 -53 -24 -19 -13 -46 -27 -58
-31 -13 -4 -33 -15 -44 -25 -11 -9 -33 -21 -50 -24 -16 -4 -39 -16 -50 -26
-11 -10 -31 -21 -45 -25 -14 -4 -31 -13 -39 -19 -15 -12 -51 -31 -168 -90 -43
-22 -89 -48 -102 -58 -13 -10 -31 -18 -41 -18 -9 0 -25 -9 -34 -19 -10 -11
-31 -23 -47 -26 -15 -4 -39 -15 -52 -25 -13 -10 -35 -22 -50 -25 -14 -4 -31
-13 -37 -20 -7 -8 -28 -19 -48 -26 -20 -6 -46 -20 -57 -29 -11 -10 -32 -22
-48 -25 -15 -4 -30 -11 -32 -16 -3 -4 -47 -29 -98 -54 -51 -26 -136 -70 -190
-98 -93 -50 -201 -106 -370 -194 -43 -23 -83 -45 -90 -51 -6 -5 -23 -13 -37
-17 -14 -4 -34 -15 -45 -25 -11 -10 -34 -21 -51 -24 -18 -4 -40 -16 -50 -27
-9 -10 -25 -19 -35 -19 -10 0 -31 -11 -47 -25 -17 -14 -39 -25 -50 -25 -11 0
-33 -11 -49 -24 -15 -13 -39 -27 -53 -31 -14 -4 -32 -13 -40 -20 -8 -6 -36
-22 -62 -34 -26 -12 -63 -33 -81 -46 -19 -12 -50 -28 -70 -34 -19 -7 -40 -18
-47 -26 -6 -7 -22 -16 -35 -19 -14 -4 -41 -17 -61 -31 -20 -14 -44 -25 -54
-25 -9 0 -25 -9 -34 -19 -10 -11 -31 -23 -46 -26 -16 -3 -34 -13 -40 -20 -6
-8 -28 -19 -48 -26 -20 -6 -44 -18 -52 -25 -9 -7 -31 -21 -50 -29 -19 -9 -80
-41 -135 -70 -55 -29 -140 -74 -190 -100 -49 -25 -130 -68 -180 -95 -49 -27
-106 -56 -125 -65 -19 -9 -41 -22 -50 -29 -8 -7 -32 -19 -52 -25 -20 -7 -42
-18 -48 -26 -6 -7 -24 -17 -40 -20 -15 -3 -35 -14 -45 -25 -9 -10 -32 -21 -51
-25 -19 -3 -37 -12 -40 -20 -3 -8 -22 -19 -42 -26 -21 -6 -44 -17 -52 -24 -8
-7 -31 -20 -50 -29 -19 -9 -57 -30 -85 -46 -27 -16 -61 -34 -75 -39 -14 -6
-32 -16 -40 -21 -8 -6 -33 -19 -55 -30 -22 -11 -47 -24 -55 -30 -8 -5 -31 -16
-50 -25 -19 -8 -42 -19 -50 -24 -8 -6 -28 -17 -45 -25 -96 -49 -139 -71 -220
-116 -49 -27 -130 -70 -180 -95 -49 -26 -112 -59 -140 -74 -27 -15 -86 -46
-130 -70 -44 -23 -85 -47 -91 -52 -19 -16 -71 -22 -79 -9 -4 6 4 28 17 48 14
20 33 51 44 67 18 30 58 117 74 165 4 14 18 43 29 65 12 21 21 52 21 68 0 16
11 47 24 70 13 23 26 64 30 91 3 27 12 57 20 65 16 19 43 94 62 176 8 33 23
89 34 125 10 36 21 101 24 145 3 44 13 100 22 125 14 38 18 91 20 337 4 282 5
295 29 365 17 47 25 93 25 137 1 40 9 88 20 121 11 30 25 90 30 132 6 42 17
92 24 110 8 18 17 53 21 78 3 25 15 71 26 103 10 31 19 67 19 80 0 12 10 42
21 67 11 25 25 71 29 104 5 32 16 66 25 76 8 9 20 42 25 72 4 31 18 73 29 94
12 21 21 46 21 56 0 9 16 57 36 105 20 48 45 112 55 141 10 29 25 62 34 74 8
13 15 32 15 43 0 11 11 38 25 60 13 22 25 49 25 61 0 11 11 35 24 53 13 18 27
47 30 66 4 18 13 38 21 45 8 7 15 17 15 23 0 14 59 136 82 169 10 14 18 33 18
42 0 9 11 26 25 37 13 12 27 36 31 53 3 17 12 38 19 46 7 8 20 31 29 50 9 19
30 58 46 85 16 28 36 64 43 80 8 17 21 36 30 44 10 7 17 18 17 24 0 6 11 27
23 46 13 20 38 59 55 86 18 28 39 59 48 70 15 20 76 111 115 173 12 17 24 32
28 32 4 0 13 11 19 25 17 38 211 282 320 403 99 110 366 378 451 452 41 36 84
74 97 85 21 19 47 39 223 175 35 28 67 50 71 50 5 0 19 9 32 20 36 31 112 80
124 80 6 0 19 9 29 20 10 11 27 22 39 26 11 4 32 14 46 24 14 9 39 25 55 36
17 11 45 26 63 32 18 6 45 20 59 32 14 11 33 20 43 20 9 0 25 9 34 19 10 10
34 22 54 26 20 4 48 15 62 24 14 10 41 21 61 25 21 4 48 15 62 26 14 11 38 20
55 20 16 0 50 11 76 25 26 14 64 25 84 25 20 0 50 9 66 19 19 13 57 22 105 26
42 4 94 14 116 22 48 19 261 29 490 25 121 -2 175 -7 220 -21z m-2766 -258
c50 -48 105 -92 123 -97 25 -9 34 -18 39 -44 4 -18 14 -41 22 -50 48 -53 40
-132 -14 -132 -31 0 -59 31 -59 65 0 45 -24 60 -93 60 -81 0 -97 -12 -97 -74
0 -67 -8 -75 -71 -69 -38 4 -56 11 -64 24 -5 10 -29 39 -52 64 -23 25 -46 57
-52 72 -7 20 -18 26 -53 31 -86 12 -118 -10 -118 -80 0 -53 -16 -63 -88 -56
-42 5 -57 11 -69 29 -23 36 -11 50 48 58 68 9 89 21 89 51 0 15 9 29 23 36 12
7 35 23 50 35 17 15 42 24 61 24 22 0 40 8 56 25 13 14 33 25 45 25 11 0 32 8
45 18 42 30 115 71 126 71 6 1 53 -38 103 -86z m465 -138 c5 -16 15 -44 22
-62 15 -33 18 -101 6 -119 -4 -6 -45 -41 -92 -79 -90 -72 -283 -248 -358 -327
-27 -29 -54 -48 -67 -48 -12 0 -48 20 -79 45 -32 25 -67 45 -76 45 -10 0 -32
11 -48 25 -17 14 -35 25 -41 25 -7 0 -33 11 -59 25 -26 14 -56 25 -67 25 -11
0 -42 11 -70 25 -27 13 -66 25 -85 25 -19 0 -46 7 -60 15 -33 19 -165 19 -219
0 -46 -16 -71 -11 -71 14 0 31 24 52 75 65 42 10 53 18 70 50 27 51 47 60 119
53 83 -8 94 -13 117 -58 21 -42 80 -79 125 -79 30 0 114 45 114 61 0 5 -31 39
-70 76 -71 68 -87 102 -58 131 16 16 64 -35 108 -115 31 -56 40 -65 95 -89 33
-15 67 -33 77 -41 9 -8 30 -13 49 -11 37 3 39 8 60 126 12 70 14 73 38 70 17
-2 27 -10 29 -23 12 -70 24 -94 54 -109 58 -29 96 -19 161 42 35 34 37 39 37
99 l0 63 34 0 c39 0 51 12 61 58 6 29 11 33 33 30 20 -2 29 -11 36 -33z
m-2270 -366 c3 -33 8 -65 12 -70 11 -18 73 -10 84 11 14 27 65 27 80 1 5 -11
10 -35 10 -53 0 -21 10 -48 25 -68 14 -19 25 -41 25 -49 0 -8 9 -24 20 -36 12
-12 23 -40 27 -61 12 -82 90 -174 147 -174 41 0 46 11 46 97 0 55 -4 70 -25
95 -14 16 -25 35 -25 42 0 8 -9 24 -19 38 -20 25 -20 25 7 62 21 30 32 37 57
36 63 -4 75 1 119 46 l46 46 31 -26 c17 -14 38 -26 46 -26 24 0 11 -55 -30
-123 -19 -32 -39 -63 -45 -70 -5 -7 -13 -27 -17 -46 -9 -43 -64 -129 -110
-174 -19 -19 -35 -41 -35 -50 0 -8 -11 -29 -25 -45 -14 -17 -25 -34 -25 -39 0
-4 -50 -58 -111 -118 -61 -61 -118 -125 -125 -143 -17 -38 -38 -49 -60 -32
-10 9 -12 16 -4 24 5 5 10 36 10 67 0 52 -3 61 -32 88 -23 22 -43 31 -66 31
-56 0 -92 26 -92 67 0 12 -12 31 -26 42 -33 26 -26 51 14 51 29 0 45 10 75 46
17 21 17 24 1 75 -10 30 -28 66 -40 81 -38 47 -40 69 -9 94 20 16 28 33 32 67
5 39 2 51 -21 77 -14 17 -26 37 -26 44 0 7 -11 23 -25 36 -20 19 -25 32 -23
60 2 29 9 38 38 53 45 22 55 11 64 -74z m804 -52 c2 -12 -3 -17 -17 -17 -12 0
-21 6 -21 13 0 31 32 34 38 4z m406 -37 c14 -5 28 -20 32 -33 5 -20 -6 -36
-62 -93 -63 -65 -124 -166 -124 -205 0 -9 -9 -28 -20 -42 -14 -17 -21 -42 -22
-72 -1 -54 8 -68 27 -40 8 11 20 27 28 35 8 8 22 31 32 50 10 18 24 40 31 48
8 7 14 22 14 33 0 10 9 28 20 39 11 11 26 34 34 52 8 18 32 52 54 75 22 23 43
51 47 63 8 24 51 37 75 22 10 -6 35 -14 56 -18 22 -4 52 -17 67 -30 16 -13 34
-24 41 -24 7 0 21 -8 30 -19 9 -10 30 -21 45 -24 31 -6 97 -46 104 -62 3 -8
-76 -109 -238 -300 -40 -48 -75 -92 -95 -121 -8 -12 -42 -57 -75 -100 -66 -86
-71 -93 -132 -185 -24 -35 -43 -67 -43 -71 0 -4 -6 -8 -13 -8 -13 0 -47 90
-47 124 0 29 -36 90 -79 132 -35 36 -40 47 -43 95 -3 46 -6 54 -22 54 -13 0
-22 -10 -27 -29 -4 -15 -15 -36 -24 -46 -9 -10 -22 -40 -29 -66 l-12 -48 -12
32 c-7 18 -17 44 -23 60 -5 15 -25 44 -43 65 -25 29 -42 40 -73 44 -35 5 -44
2 -66 -22 -21 -23 -30 -27 -59 -21 -40 7 -78 39 -78 65 0 10 9 26 20 36 11 10
20 24 20 32 0 8 20 36 45 62 25 26 45 52 45 58 0 5 11 20 25 33 14 13 25 29
25 35 0 6 11 26 24 44 13 18 27 47 30 66 4 18 13 36 22 39 8 3 18 14 22 23 27
65 70 111 127 139 84 41 244 53 319 24z m-1336 -623 c12 -24 22 -49 22 -55 0
-14 47 -51 88 -67 34 -15 38 -25 21 -56 -5 -11 -10 -42 -11 -69 0 -40 6 -56
27 -81 22 -27 25 -40 23 -83 -3 -56 -24 -72 -57 -42 -10 9 -44 21 -76 26 -32
5 -66 17 -76 26 -12 10 -46 19 -91 24 -40 4 -87 14 -105 23 -40 21 -92 22
-121 2 -16 -12 -42 -15 -99 -13 l-77 3 -35 60 c-21 36 -36 77 -39 105 -3 40 0
48 27 74 37 35 184 86 250 86 30 0 63 9 93 25 26 14 55 25 65 25 10 0 29 7 41
16 32 22 74 33 92 23 9 -4 26 -27 38 -52z m842 -116 c0 -14 9 -42 19 -62 11
-20 24 -54 30 -75 20 -71 91 -130 142 -117 40 10 49 23 49 73 0 29 6 52 14 59
21 17 28 0 33 -78 2 -39 11 -76 21 -91 48 -70 45 -93 -23 -190 -20 -29 -41
-65 -47 -81 -5 -16 -14 -29 -19 -29 -5 0 -15 -12 -21 -27 -17 -39 -70 -123
-78 -123 -12 0 -100 70 -100 80 0 13 -131 154 -154 165 -63 31 -106 66 -106
89 0 33 21 47 82 55 l53 6 3 39 c2 27 -3 48 -15 65 -11 14 -34 53 -53 86 -18
33 -42 71 -52 84 -20 27 -24 71 -6 89 8 8 17 6 36 -8 38 -30 88 -26 129 10 28
25 38 29 49 19 8 -6 14 -23 14 -38z m-322 -70 c18 -27 32 -52 32 -57 0 -4 10
-18 22 -32 43 -45 52 -142 13 -142 -14 0 -69 -57 -84 -87 -20 -40 -54 -29
-125 42 -62 61 -66 67 -66 110 0 42 5 52 48 97 61 66 116 118 123 118 3 0 20
-22 37 -49z m502 -42 c0 -16 -5 -29 -10 -29 -13 0 -32 48 -25 60 11 18 35 -3
35 -31z m-1850 -69 c10 -5 28 -29 39 -53 29 -59 93 -109 156 -122 l50 -10 -2
-50 c-6 -120 -14 -156 -39 -178 -13 -11 -24 -26 -24 -33 0 -18 -118 -135 -172
-172 -81 -53 -83 -54 -112 -31 -29 23 -62 26 -154 14 -72 -9 -82 -3 -82 52 0
49 -18 84 -66 130 -50 48 -55 69 -19 85 13 6 37 29 52 52 15 23 29 43 30 45 2
3 27 5 56 6 38 1 61 8 87 26 141 99 149 109 150 197 0 55 10 63 50 42z m668
-149 c20 -10 57 -21 82 -25 24 -4 58 -15 75 -25 16 -10 56 -21 88 -24 36 -4
67 -13 83 -26 18 -14 41 -21 71 -21 34 0 53 -6 75 -25 27 -23 38 -25 127 -25
83 0 100 -3 115 -19 9 -10 34 -21 56 -25 27 -4 46 -16 64 -38 50 -63 75 -84
146 -128 34 -21 72 -52 85 -70 l23 -32 -21 -46 c-40 -84 -49 -90 -65 -42 -11
30 -51 88 -84 122 -10 10 -18 24 -18 32 0 7 -9 25 -20 39 -11 14 -20 31 -20
37 0 22 -73 80 -100 80 -14 0 -41 -11 -60 -25 -19 -14 -39 -25 -46 -25 -6 0
-22 -9 -36 -19 l-24 -19 -49 44 c-28 24 -60 53 -72 65 -21 20 -34 22 -124 22
-107 0 -119 -5 -119 -51 0 -30 26 -39 51 -16 26 24 126 31 153 11 18 -13 18
-15 3 -38 -14 -19 -17 -48 -17 -150 0 -106 -3 -129 -17 -140 -9 -8 -25 -34
-36 -58 -21 -47 -22 -40 22 -183 l21 -67 -21 -35 c-15 -25 -29 -36 -56 -41
-20 -4 -50 -21 -70 -40 -45 -43 -40 -69 23 -127 40 -37 45 -46 40 -72 -4 -16
-13 -37 -22 -47 -8 -9 -19 -33 -25 -53 -14 -51 -49 -44 -49 10 0 8 -12 31 -27
50 -23 27 -35 34 -63 34 -23 0 -42 -7 -53 -20 -20 -23 -73 -27 -102 -6 -46 31
-63 29 -114 -13 -57 -48 -66 -43 -73 39 -7 81 -80 179 -135 180 -22 0 -63 -42
-63 -66 0 -26 -27 -14 -58 25 -18 22 -32 46 -32 54 0 37 -109 136 -151 137 -9
0 -24 -9 -34 -20 -21 -23 -59 -26 -117 -8 -34 10 -44 9 -73 -6 -44 -24 -58
-61 -53 -140 4 -62 6 -66 62 -127 52 -55 86 -110 86 -137 0 -5 -18 -20 -41
-35 -39 -26 -41 -26 -67 -10 -35 23 -42 33 -42 65 0 15 -10 36 -21 47 -15 14
-23 36 -27 73 -2 32 -12 61 -23 73 -10 11 -23 42 -29 70 -6 27 -18 58 -27 67
-22 24 -30 120 -12 135 8 6 49 13 92 15 50 3 83 10 95 21 9 8 31 19 47 22 17
4 40 14 53 22 12 7 48 18 80 24 31 6 71 19 87 29 17 10 48 21 70 25 22 4 54
15 70 25 17 10 45 21 64 25 19 4 48 16 65 26 17 10 38 19 47 19 9 0 37 11 63
25 26 14 52 25 59 25 7 0 37 18 67 40 30 22 69 47 87 55 43 20 97 71 89 84
-12 18 -58 12 -82 -10 -24 -23 -45 -36 -104 -66 -19 -10 -40 -24 -45 -31 -6
-7 -31 -18 -55 -23 -25 -6 -52 -16 -60 -24 -8 -8 -37 -19 -63 -25 -27 -6 -58
-17 -71 -25 -12 -8 -42 -19 -67 -24 -40 -8 -65 -17 -199 -72 -25 -10 -67 -21
-95 -25 -27 -4 -54 -13 -60 -19 -14 -18 -57 -26 -75 -15 -13 9 -13 11 0 20 8
5 29 10 47 10 22 0 33 6 38 19 3 11 22 25 43 32 35 12 47 18 118 66 17 12 47
28 65 36 43 18 134 102 157 143 9 18 30 52 47 75 35 52 63 147 74 246 4 40 13
79 21 87 20 25 238 23 288 -3z m7145 -311 l128 0 21 -36 c15 -25 25 -33 37
-28 9 3 34 10 56 14 23 5 46 17 54 29 7 12 24 21 36 21 30 0 98 -55 109 -88 5
-15 15 -35 24 -44 22 -26 18 -62 -14 -105 -16 -21 -33 -41 -39 -45 -18 -14
-52 -8 -69 11 -23 26 -113 46 -132 30 -26 -21 -17 -71 19 -106 36 -35 152 -83
201 -83 19 0 47 -11 66 -25 19 -14 40 -25 47 -25 7 0 23 -11 34 -24 12 -13 32
-27 46 -31 14 -3 39 -16 56 -28 40 -30 137 -129 137 -142 0 -19 -29 -52 -49
-58 -12 -3 -33 5 -52 19 -18 13 -40 24 -48 24 -9 0 -36 21 -61 46 -25 24 -56
47 -70 51 -14 3 -34 14 -45 23 -11 10 -31 21 -44 25 -26 8 -87 47 -113 73 -45
46 -66 60 -96 66 -18 4 -36 16 -42 25 -6 12 -26 20 -61 24 -31 4 -61 14 -73
26 -17 15 -39 20 -106 23 -61 2 -94 8 -113 21 -26 16 -27 22 -27 95 0 43 -7
104 -15 135 -8 32 -15 62 -15 68 0 14 41 29 65 24 11 -3 78 -5 148 -5z m-6349
-82 c8 -13 17 -34 21 -47 4 -13 20 -42 36 -65 16 -22 37 -52 46 -66 9 -14 34
-42 55 -63 21 -21 38 -42 38 -48 0 -5 -9 -27 -19 -47 -42 -80 -153 -325 -165
-364 -3 -10 -11 -18 -19 -18 -17 0 -127 98 -127 114 0 21 -44 55 -80 62 -48 9
-60 21 -60 59 0 18 -11 49 -25 69 -18 27 -25 50 -25 87 0 40 5 53 25 71 23 20
25 28 25 119 0 67 4 100 13 106 6 4 41 8 77 10 46 2 72 8 90 22 35 27 76 27
94 -1z m6976 7 c9 -8 43 -17 75 -21 33 -4 74 -15 90 -24 17 -10 48 -22 70 -26
72 -13 130 -95 93 -132 -18 -18 -59 -14 -83 8 -12 11 -42 24 -68 29 -26 5 -57
17 -67 26 -12 10 -42 20 -72 23 -29 2 -59 9 -65 14 -18 15 -26 73 -14 97 14
25 19 26 41 6z m-9134 -421 c14 -18 7 -51 -18 -83 -10 -13 -18 -33 -18 -45 0
-11 -23 -45 -50 -74 -28 -30 -50 -63 -50 -74 0 -12 -8 -30 -17 -41 -40 -43
-46 -291 -8 -337 7 -8 18 -58 25 -110 7 -52 21 -115 33 -139 25 -54 15 -93
-25 -101 -47 -9 -248 -198 -248 -233 0 -27 -35 -86 -56 -94 -10 -3 -28 9 -52
38 -20 24 -47 52 -59 63 -13 11 -23 24 -23 29 0 12 -67 114 -80 122 -5 3 -12
26 -16 50 -3 25 -15 56 -25 69 -11 14 -22 39 -26 58 -6 33 -72 108 -94 108 -6
0 -22 9 -36 20 -14 11 -39 20 -55 20 -18 0 -43 11 -60 25 -23 19 -41 25 -79
25 -34 0 -65 8 -97 25 -26 14 -61 25 -78 25 -17 0 -43 9 -57 20 -14 11 -27 20
-30 20 -14 0 -228 225 -233 245 -16 64 20 112 52 67 7 -11 30 -23 49 -26 20
-4 38 -13 41 -21 8 -19 62 -50 101 -58 18 -3 60 -26 94 -49 34 -24 87 -57 118
-75 54 -31 60 -32 172 -33 137 0 155 9 118 59 -12 17 -31 33 -40 36 -10 3 -32
22 -49 42 -30 33 -32 41 -28 93 3 46 10 64 39 99 40 51 62 61 132 61 44 0 56
-4 84 -32 29 -28 33 -39 34 -87 2 -78 10 -105 42 -140 36 -41 72 -41 113 2 17
17 34 47 37 65 4 19 16 45 27 59 11 14 20 33 20 42 0 10 11 32 25 51 14 19 25
41 25 49 0 9 37 51 83 95 71 70 88 81 127 87 56 8 102 1 116 -17z m774 -240
c6 -15 19 -38 30 -52 11 -13 20 -39 20 -58 0 -19 9 -44 23 -61 13 -15 31 -41
41 -56 9 -16 37 -37 62 -48 43 -18 46 -18 71 -2 25 17 27 17 37 -2 20 -34 79
-83 105 -87 55 -8 85 5 97 40 17 55 54 67 94 32 28 -24 77 -26 101 -4 37 33
70 -28 80 -150 6 -70 12 -95 30 -120 35 -46 31 -99 -13 -161 -19 -28 -50 -58
-70 -67 -67 -32 -88 -95 -48 -145 40 -52 22 -93 -44 -100 -39 -5 -52 -1 -84
21 -46 31 -92 34 -137 6 -20 -12 -59 -22 -106 -26 -50 -4 -80 -12 -94 -25 -11
-9 -33 -21 -50 -25 -16 -3 -38 -16 -47 -28 l-17 -21 -30 23 c-22 16 -45 22
-83 23 -99 0 -185 14 -202 32 -26 25 -125 24 -159 -3 -17 -13 -40 -20 -71 -20
-25 0 -46 1 -46 3 -11 53 -29 192 -30 219 0 40 7 48 60 63 23 7 40 21 50 41
22 44 62 94 75 94 25 0 101 -107 120 -169 12 -38 51 -92 112 -153 55 -54 61
-58 106 -58 46 0 53 3 110 59 l62 60 -1 84 c0 77 -3 88 -34 135 -18 29 -37 52
-42 52 -5 0 -16 16 -24 35 -19 47 -117 142 -155 150 -37 8 -67 50 -52 73 5 9
27 21 47 26 21 4 40 14 43 22 7 19 -26 106 -48 125 -10 9 -21 29 -25 44 -4 15
-29 49 -56 75 -40 39 -49 53 -46 76 4 36 34 44 54 15 22 -30 64 -27 109 9 46
37 63 38 75 4z m1263 -68 c48 -46 87 -90 87 -97 0 -8 -12 -32 -25 -54 -14 -22
-25 -51 -25 -65 0 -14 -9 -43 -21 -65 -12 -21 -27 -59 -34 -84 -16 -55 -43
-137 -56 -170 -13 -32 -42 -23 -125 39 -57 42 -74 50 -111 50 -95 0 -110 45
-39 117 40 40 96 148 96 184 0 6 11 24 25 41 17 20 25 42 25 69 0 31 8 47 36
79 22 24 45 40 59 40 14 0 53 -30 108 -84z m-982 -39 c-1 -4 -1 -15 -1 -24 0
-16 -1 -16 -16 -1 -9 9 -13 21 -9 28 7 12 27 10 26 -3z m-567 -317 c14 -5 33
-26 43 -46 14 -29 33 -45 86 -71 53 -28 81 -51 132 -111 36 -43 69 -93 75
-113 6 -20 17 -42 25 -49 22 -19 18 -42 -15 -87 -50 -68 -109 -64 -146 10 -9
17 -25 40 -35 50 -11 10 -19 28 -19 41 0 12 -11 33 -25 46 -14 13 -25 28 -25
34 -1 22 -61 100 -92 119 -64 39 -152 5 -194 -75 -8 -15 -26 -31 -41 -34 -38
-10 -91 -46 -99 -68 -3 -10 -6 -79 -6 -153 0 -104 -3 -136 -14 -140 -17 -6
-84 44 -84 64 0 8 -7 27 -15 43 -9 17 -22 60 -30 97 -7 38 -19 89 -25 115 -6
25 -10 66 -8 90 3 37 6 43 28 46 52 8 64 41 30 85 -24 30 -26 60 -6 77 17 14
180 30 388 38 26 1 58 -2 72 -8z m-1830 -75 c11 -8 34 -15 52 -15 17 0 43 -10
58 -21 21 -17 48 -23 123 -29 73 -5 98 -11 105 -23 5 -11 22 -17 43 -17 27 0
45 -11 93 -55 52 -49 60 -62 65 -101 2 -25 12 -53 20 -62 9 -10 20 -37 26 -60
5 -24 18 -53 28 -63 10 -11 27 -30 39 -42 51 -55 124 -149 124 -161 0 -7 11
-23 25 -36 31 -29 31 -43 2 -63 -13 -9 -38 -29 -54 -46 -31 -30 -104 -64 -178
-81 -62 -14 -238 -102 -271 -135 -9 -8 -20 -15 -25 -15 -22 0 -41 -73 -34
-133 3 -33 6 -118 6 -189 0 -127 0 -130 26 -154 l26 -24 -21 -23 c-36 -38 -29
-74 23 -119 l45 -40 0 -73 c0 -80 7 -93 59 -115 l30 -12 -43 -53 c-36 -44 -45
-64 -51 -110 -10 -83 4 -220 31 -305 13 -41 24 -84 24 -95 0 -11 9 -33 20 -50
11 -16 20 -38 20 -47 0 -9 11 -29 25 -44 14 -15 25 -36 25 -46 0 -11 22 -43
48 -71 27 -29 76 -86 109 -127 33 -41 77 -92 97 -112 53 -54 150 -116 194
-124 20 -3 52 -15 70 -25 28 -16 54 -19 157 -19 68 0 135 -4 149 -10 15 -5 38
-30 54 -57 15 -26 45 -65 67 -85 38 -36 43 -38 106 -38 59 0 71 3 105 31 22
17 43 37 47 45 6 11 36 14 137 14 128 0 130 0 161 28 28 25 33 38 40 95 5 36
19 87 33 114 26 51 116 143 140 143 8 0 49 -28 91 -62 141 -115 147 -119 202
-120 36 -1 62 5 87 20 63 37 71 27 31 -35 -13 -21 -42 -61 -65 -89 -22 -28
-40 -56 -40 -61 0 -6 -25 -26 -56 -44 -31 -19 -68 -44 -82 -55 -15 -12 -41
-24 -58 -28 -18 -4 -40 -16 -50 -27 -9 -10 -27 -19 -40 -19 -13 0 -44 -11 -70
-25 -26 -14 -61 -25 -78 -25 -17 0 -49 -10 -71 -21 -30 -16 -63 -23 -130 -26
-49 -2 -125 -11 -167 -20 -72 -15 -84 -15 -155 0 -43 9 -123 18 -178 20 -72 3
-110 9 -135 22 -19 10 -61 22 -93 26 -32 4 -66 14 -75 22 -10 9 -40 21 -67 27
-27 6 -56 17 -65 25 -8 7 -28 17 -45 21 -16 3 -37 13 -45 20 -9 7 -31 20 -50
29 -42 18 -104 56 -207 127 -112 77 -224 195 -298 314 -11 18 -37 57 -57 87
-21 30 -38 59 -38 64 0 6 -6 16 -13 22 -29 23 -127 243 -127 283 0 13 -9 38
-21 57 -11 18 -23 57 -26 85 -3 28 -14 66 -25 85 -11 19 -23 68 -28 112 -5 43
-15 91 -23 106 -8 15 -20 72 -26 126 -7 53 -17 112 -22 130 -6 17 -15 82 -20
142 -6 61 -15 146 -20 190 -16 128 -22 501 -11 590 6 44 16 132 22 195 6 63
19 165 30 225 11 61 22 133 25 160 6 52 53 195 64 195 3 0 15 -7 25 -15z
m3143 -292 c71 -75 83 -92 78 -113 -4 -14 -13 -33 -22 -42 -8 -9 -19 -50 -23
-92 -5 -41 -16 -88 -24 -105 -9 -17 -21 -65 -27 -107 -6 -42 -15 -88 -20 -102
-6 -15 -16 -67 -24 -118 -7 -50 -20 -108 -29 -128 -14 -33 -19 -36 -54 -36
-33 0 -47 7 -81 41 -22 23 -41 45 -41 49 0 12 27 20 65 20 56 0 82 15 87 49 3
20 -1 36 -9 43 -8 6 -21 25 -30 42 -8 17 -24 41 -35 53 -27 29 -18 49 26 57
42 8 49 19 66 108 21 105 6 137 -115 245 -36 32 -32 58 13 80 34 16 38 23 48
78 7 33 12 61 13 63 1 1 13 2 27 2 21 0 47 -21 111 -87z m110 61 c7 -22 -14
-35 -40 -25 -28 11 -36 36 -14 44 15 5 50 -7 54 -19z m-1991 -164 c7 -25 19
-58 28 -75 9 -16 16 -38 16 -49 0 -10 14 -40 31 -66 l31 -47 76 -7 c42 -3 80
-10 85 -15 10 -10 -58 -112 -118 -175 -58 -60 -96 -63 -154 -11 -21 20 -42 46
-45 59 -3 13 -24 40 -46 60 -34 30 -47 36 -86 36 -61 0 -88 14 -74 40 5 10 10
30 10 44 0 13 11 37 24 53 13 15 26 38 30 51 4 12 24 33 44 46 48 32 102 82
102 96 0 6 8 10 18 8 11 -2 21 -19 28 -48z m1403 -235 c25 -28 31 -45 31 -80
0 -51 27 -84 93 -115 22 -10 52 -32 68 -49 24 -26 27 -36 19 -52 -6 -11 -21
-19 -36 -19 -14 0 -39 -9 -55 -21 -25 -18 -29 -27 -29 -70 0 -45 5 -57 44
-105 25 -30 48 -64 52 -76 9 -31 -19 -48 -80 -48 -44 0 -55 5 -84 33 -18 17
-41 44 -52 59 -34 44 -109 89 -166 98 -29 5 -66 16 -82 24 -46 24 -101 24
-119 1 -19 -26 -9 -144 18 -201 10 -22 24 -66 30 -97 5 -31 16 -72 23 -89 7
-18 16 -57 20 -87 4 -30 15 -70 25 -90 54 -106 55 -108 37 -132 -13 -19 -16
-49 -16 -147 0 -122 0 -124 -28 -151 -20 -20 -42 -30 -79 -35 -29 -3 -71 -15
-95 -26 -50 -23 -101 -26 -116 -7 -6 7 -14 33 -18 57 -4 25 -11 54 -17 65 -6
11 -14 44 -18 73 -6 45 -14 61 -49 95 -23 23 -49 58 -57 77 -8 19 -24 41 -34
48 -24 17 -25 69 -1 102 9 14 22 38 27 55 8 25 16 31 45 33 50 5 60 18 60 74
0 49 0 50 -95 144 -52 52 -95 99 -95 105 0 6 15 32 33 57 17 26 37 53 42 62
24 35 373 372 400 386 17 8 41 21 55 29 14 8 34 15 46 15 12 0 31 9 44 20 19
16 37 20 100 20 77 0 78 -1 109 -35z m282 3 c55 -58 10 -80 -57 -27 -50 39
-47 36 -39 48 14 23 66 12 96 -21z m-936 -37 c21 -11 52 -21 67 -21 62 0 47
-28 -84 -154 -125 -121 -208 -234 -208 -285 0 -31 -27 -52 -58 -45 -39 10 -42
12 -42 43 0 15 -11 41 -23 59 -25 34 -94 92 -108 92 -5 0 -27 16 -49 36 l-40
36 32 40 c57 73 207 216 230 221 13 3 73 4 133 3 90 -3 117 -7 150 -25z m-919
-138 c8 -10 29 -40 46 -66 36 -57 103 -95 181 -104 62 -7 165 -61 217 -113 24
-24 41 -53 48 -83 16 -62 61 -97 125 -97 50 0 93 -22 160 -81 l41 -37 -59 -57
c-59 -57 -61 -58 -128 -63 -64 -4 -70 -6 -88 -36 -10 -17 -19 -45 -19 -62 0
-25 -8 -36 -42 -58 -24 -16 -59 -30 -78 -33 -19 -3 -48 -14 -65 -23 -16 -10
-46 -21 -66 -25 -33 -6 -38 -4 -64 32 -45 59 -54 63 -125 60 -84 -3 -89 14
-23 85 50 54 70 81 110 147 53 85 53 118 0 162 l-31 26 -53 -23 c-60 -27 -150
-114 -159 -154 -4 -14 -16 -34 -29 -45 -27 -23 -75 -110 -75 -136 0 -59 -28
-63 -71 -9 -38 47 -74 53 -121 18 -58 -44 -138 -121 -138 -133 0 -21 -78 -85
-103 -85 -36 0 -47 19 -47 81 0 46 -4 59 -21 70 -13 9 -21 26 -22 49 -2 32 0
34 39 42 44 9 134 85 134 113 0 23 -43 35 -130 35 -94 0 -104 12 -50 58 35 29
45 32 104 32 59 0 68 3 96 30 17 17 34 30 38 30 4 0 15 14 24 31 18 30 17 31
-9 64 -19 23 -38 35 -64 39 -35 6 -57 21 -46 32 3 3 33 9 68 14 43 6 69 15 79
28 25 30 55 42 107 42 60 0 127 35 131 69 2 13 -6 36 -17 52 -21 28 -21 28 -2
39 11 5 38 10 60 10 29 0 47 7 67 25 32 30 48 31 70 8z m-656 -395 c0 -29 -40
-68 -71 -68 -60 0 -82 111 -34 169 15 16 38 31 53 33 25 3 28 0 39 -52 7 -30
12 -67 13 -82z m2116 -42 c112 -110 187 -138 281 -104 18 6 36 9 40 5 4 -4 8
-71 10 -149 2 -106 0 -144 -9 -150 -7 -4 -87 -8 -178 -8 -170 0 -190 4 -190
41 0 9 -10 29 -22 44 -17 22 -23 47 -28 114 -5 60 -13 98 -28 126 -21 38 -30
123 -15 138 3 4 21 7 40 7 27 0 44 -11 99 -64z m472 -81 c-2 -44 -8 -70 -15
-73 -10 -3 -13 14 -13 61 0 72 8 103 22 89 5 -5 8 -40 6 -77z m-1828 -39 c0
-12 -17 -40 -39 -62 -21 -22 -44 -50 -50 -62 -6 -12 -18 -22 -26 -22 -24 0
-18 46 9 77 92 106 106 115 106 69z m-136 -171 c-4 -8 -12 -15 -20 -15 -8 0
-14 7 -14 15 0 8 9 15 20 15 13 0 18 -5 14 -15z m721 -122 c3 -15 15 -36 26
-48 35 -35 79 -97 79 -111 0 -7 9 -18 20 -24 29 -15 25 -44 -10 -73 -36 -31
-82 -42 -110 -27 -11 6 -50 40 -87 76 -36 36 -78 70 -92 76 -25 9 -26 10 -6
24 11 8 31 12 45 9 14 -3 38 -1 55 3 26 7 31 14 37 56 12 83 28 97 43 39z
m-1005 -69 c0 -42 4 -55 19 -64 26 -13 94 -13 126 2 14 6 28 8 32 5 3 -4 10
-35 15 -69 4 -34 15 -72 23 -85 8 -12 15 -28 15 -35 0 -48 23 -89 61 -111 46
-25 111 -63 155 -91 33 -21 76 -75 68 -87 -2 -4 -17 -10 -33 -14 -16 -3 -37
-15 -47 -26 -9 -10 -28 -19 -41 -19 -13 0 -35 -11 -48 -24 -13 -14 -34 -27
-46 -31 -23 -8 -62 -32 -152 -95 -31 -22 -61 -40 -66 -40 -4 0 -35 -28 -67
-62 -100 -103 -126 -127 -138 -122 -13 6 -66 87 -66 101 0 6 -9 21 -19 35 -11
13 -23 38 -27 54 -4 16 -17 49 -30 74 -15 27 -24 62 -24 88 0 23 -9 68 -20 99
-35 101 -19 193 45 248 26 23 75 112 75 136 0 18 80 124 132 176 42 42 58 30
58 -43z m236 41 c8 -32 -1 -55 -21 -55 -10 0 -15 10 -15 33 0 51 25 66 36 22z
m1974 -163 c0 -164 -2 -180 -22 -217 -16 -29 -24 -64 -28 -128 -6 -87 -6 -87
-50 -132 l-44 -45 -151 0 c-82 0 -157 5 -165 10 -22 14 -21 587 1 601 8 5 82
9 164 9 150 0 227 10 233 29 7 22 44 61 53 56 5 -4 9 -86 9 -183z m-1756 58
c56 -58 83 -63 167 -30 29 10 71 22 95 26 38 5 44 3 54 -17 14 -27 53 -66 122
-122 43 -36 46 -40 37 -67 -7 -20 -19 -31 -39 -35 -16 -4 -40 -15 -53 -25 -13
-10 -37 -22 -53 -26 -16 -4 -41 -16 -56 -26 -16 -10 -41 -27 -58 -38 -53 -36
-85 -25 -203 65 -29 22 -65 47 -82 55 -16 8 -35 26 -42 40 -6 14 -21 44 -32
68 -24 49 -27 119 -8 146 11 15 33 23 97 35 3 0 27 -22 54 -49z m744 -452 l2
-246 -37 -36 c-21 -20 -46 -36 -55 -36 -9 0 -29 -11 -45 -24 -16 -14 -41 -28
-55 -31 -15 -4 -34 -15 -44 -26 -9 -10 -23 -19 -29 -19 -14 0 -67 -39 -135
-99 -25 -22 -67 -55 -95 -72 -27 -18 -70 -49 -95 -69 -25 -19 -65 -49 -90 -65
-25 -15 -61 -39 -81 -52 -40 -26 -75 -29 -123 -9 -18 7 -55 18 -82 24 -68 15
-150 62 -216 124 -79 74 -81 86 -19 151 28 30 51 59 51 65 0 11 106 102 119
102 3 0 24 18 46 39 22 21 56 45 75 54 19 8 51 30 70 48 38 37 125 83 178 94
18 4 36 15 42 24 5 10 23 21 41 25 17 3 41 15 53 26 65 60 79 70 104 70 27 0
192 79 312 151 110 65 105 75 108 -213z m426 -16 c4 -49 14 -102 22 -117 13
-26 13 -30 -3 -39 -29 -16 -63 -54 -63 -70 0 -41 110 -45 145 -6 17 18 32 20
181 20 90 0 165 -4 168 -9 7 -11 -17 -119 -32 -148 -6 -11 -16 -42 -22 -68 -6
-26 -20 -59 -30 -73 -11 -13 -20 -32 -20 -42 0 -18 -84 -90 -106 -90 -7 0 -34
-11 -60 -25 -63 -33 -89 -31 -149 10 -27 20 -61 43 -75 52 -14 9 -37 24 -51
34 -14 9 -45 23 -68 30 -33 10 -47 21 -61 50 -28 55 -73 87 -130 95 -28 4 -50
11 -50 16 0 13 40 89 61 117 16 20 19 42 19 153 0 71 4 138 10 148 9 16 13 17
52 3 46 -16 103 -10 129 13 14 13 74 31 110 33 14 1 18 -15 23 -87z m-520
-461 c12 -13 36 -20 92 -24 89 -7 128 -27 118 -60 -3 -12 -31 -45 -60 -74 -30
-29 -54 -61 -54 -72 0 -11 -11 -41 -25 -67 -14 -26 -25 -59 -25 -73 0 -45 -16
-51 -126 -51 -57 0 -113 -4 -126 -9 -13 -5 -42 -27 -65 -50 -53 -53 -79 -53
-126 0 -21 22 -37 46 -37 53 0 19 -30 42 -72 56 -21 6 -38 16 -38 22 0 17 41
68 55 68 7 0 26 10 42 23 15 12 35 27 44 32 9 6 29 19 45 29 16 11 47 31 69
45 21 14 57 45 79 69 22 23 46 42 52 42 6 0 27 11 47 24 33 22 55 32 83 35 6
0 18 -7 28 -18z"/>
<path d="M8676 5775 c-75 -26 -71 -6 -71 -393 0 -282 3 -365 17 -442 14 -77
18 -189 22 -600 5 -413 9 -507 20 -518 12 -12 21 -11 60 9 80 39 75 -7 65 579
-4 289 -12 545 -18 570 -5 25 -13 212 -17 415 -6 339 -11 396 -33 395 -3 -1
-24 -7 -45 -15z"/>
<path d="M8355 5678 c-11 -6 -32 -22 -47 -36 -28 -26 -28 -27 -28 -156 0 -78
7 -166 16 -216 12 -61 18 -193 25 -475 14 -624 27 -996 34 -1052 11 -75 20
-79 94 -42 l63 31 -5 432 c-3 376 -6 438 -21 486 -16 48 -19 119 -26 536 -4
265 -11 487 -14 493 -9 14 -65 14 -91 -1z"/>
<path d="M8011 5555 c-25 -29 -31 -45 -31 -83 -1 -26 -5 -67 -10 -92 -6 -29
-5 -74 3 -129 10 -77 14 -85 45 -109 l33 -25 30 29 c16 15 34 45 39 65 6 20
17 42 25 49 20 17 22 241 2 262 -7 7 -20 25 -30 41 -26 40 -66 37 -106 -8z"/>
<path d="M9097 5361 c-58 -34 -107 -87 -107 -116 0 -12 -11 -32 -25 -45 -20
-18 -25 -33 -25 -69 0 -30 -9 -63 -25 -93 -21 -39 -25 -61 -25 -126 0 -105 9
-116 78 -101 30 6 55 16 57 22 1 7 9 45 16 84 11 69 15 75 57 108 44 34 83 43
111 26 20 -13 31 -90 20 -133 -8 -32 -15 -39 -47 -48 -20 -5 -53 -25 -72 -43
-53 -49 -120 -129 -120 -142 0 -6 -11 -26 -25 -45 -19 -26 -25 -46 -25 -84 0
-34 -9 -68 -25 -101 -22 -45 -24 -63 -25 -171 0 -106 3 -125 20 -146 10 -14
22 -45 25 -69 14 -94 49 -129 117 -115 59 12 178 110 178 146 0 28 25 43 40
25 20 -24 54 -17 89 19 29 30 33 39 26 68 -4 18 -11 240 -15 493 -4 269 -12
477 -18 500 -27 101 -38 124 -76 154 -52 41 -111 42 -179 2z m135 -863 c-1
-56 -8 -101 -17 -117 -8 -14 -21 -40 -31 -57 -9 -18 -30 -36 -50 -43 -30 -11
-37 -10 -63 8 -67 48 -40 199 46 261 19 14 47 35 61 47 24 19 29 20 42 7 12
-11 14 -35 12 -106z"/>
<path d="M7613 5170 c-23 -17 -44 -38 -48 -48 -3 -9 -3 -86 1 -171 l7 -153
-35 -32 c-28 -26 -37 -44 -47 -95 -7 -35 -15 -61 -18 -58 -2 3 -10 27 -17 54
-18 71 -39 69 -114 -13 l-61 -66 -31 26 c-36 30 -46 31 -115 13 -77 -20 -76
-18 -64 -343 6 -153 15 -344 19 -424 4 -80 12 -246 18 -370 20 -398 37 -440
149 -364 20 13 39 24 43 24 4 0 13 13 19 29 9 21 10 69 2 192 -6 90 -13 250
-16 354 -4 121 -12 210 -22 246 -42 155 40 367 162 419 24 10 46 23 49 29 4 6
25 11 47 11 51 0 59 -19 60 -148 0 -53 5 -124 10 -157 5 -33 13 -175 18 -315
l8 -256 34 -59 c66 -118 134 -146 214 -87 47 36 64 75 54 122 -5 19 -9 73 -9
120 0 100 -7 115 -45 106 -16 -4 -33 -2 -42 5 -25 21 -43 79 -43 138 0 31 -5
166 -11 301 -7 135 -9 262 -5 282 6 32 17 44 67 79 69 46 65 25 39 199 -18
122 -12 114 -75 106 -47 -5 -56 -4 -65 13 -5 11 -10 82 -10 158 0 95 -4 143
-12 151 -21 21 -72 13 -115 -18z"/>
<path d="M8031 4923 l-54 -35 6 -132 c3 -72 12 -162 21 -200 11 -52 18 -192
27 -535 7 -282 15 -471 21 -478 15 -19 57 -16 85 7 14 11 34 20 44 20 10 0 22
8 27 17 16 28 3 473 -18 608 -14 89 -20 201 -24 434 -4 237 -9 317 -18 323
-25 15 -64 6 -117 -29z"/>
<path d="M5949 4820 c-26 -4 -57 -14 -70 -21 -13 -6 -53 -20 -89 -30 -116 -31
-305 -99 -344 -124 -12 -7 -37 -16 -56 -19 -19 -4 -55 -15 -80 -25 -64 -26
-139 -51 -185 -63 -61 -16 -69 -22 -77 -59 -6 -33 7 -300 17 -328 7 -19 125
-7 174 19 20 10 55 22 76 26 22 4 52 15 67 25 34 25 74 24 88 0 6 -12 10 -99
10 -215 0 -178 2 -202 24 -268 20 -65 24 -100 30 -308 4 -146 12 -256 21 -290
8 -30 17 -102 20 -160 4 -58 13 -163 21 -235 8 -71 20 -176 26 -232 6 -56 14
-107 18 -113 8 -14 98 15 179 57 61 31 76 61 60 116 -6 18 -13 106 -18 197 -4
91 -11 172 -15 179 -5 7 -14 103 -22 212 -7 116 -19 222 -29 255 -12 41 -19
125 -25 308 -7 220 -10 257 -29 304 -17 41 -21 74 -21 156 0 124 10 144 80
153 25 3 56 14 70 24 14 9 49 21 76 27 29 5 67 21 87 36 l37 28 -7 172 c-7
215 -7 214 -114 196z"/>
<path d="M6485 4440 c-11 -5 -32 -9 -46 -9 -18 -1 -45 -20 -85 -60 -85 -84
-104 -105 -104 -118 0 -5 -9 -22 -20 -36 -12 -14 -26 -41 -32 -59 -6 -18 -19
-44 -30 -57 -10 -13 -18 -33 -18 -45 -1 -11 -8 -39 -16 -61 -9 -22 -20 -62
-25 -90 -5 -27 -17 -79 -26 -115 -12 -50 -16 -111 -15 -265 1 -180 4 -211 26
-295 14 -52 32 -113 40 -135 8 -22 15 -48 16 -59 0 -10 11 -31 25 -48 14 -16
25 -37 25 -47 0 -21 26 -55 97 -126 40 -40 66 -56 117 -73 78 -26 86 -26 123
-8 15 8 43 20 61 27 28 10 83 59 151 134 10 11 22 31 26 45 4 14 15 34 24 45
10 11 30 54 45 95 16 41 37 96 47 122 12 30 22 86 25 145 4 54 13 111 20 127
8 16 17 72 20 125 5 76 2 105 -11 141 -9 25 -20 98 -25 163 -5 73 -14 127 -23
140 -8 12 -18 37 -22 56 -4 18 -22 61 -41 95 -18 33 -41 76 -50 95 -29 62
-112 127 -188 147 -58 16 -82 16 -111 4z m138 -445 c25 -25 51 -62 57 -83 7
-20 20 -45 29 -56 13 -15 16 -52 19 -231 3 -213 3 -214 -22 -262 -15 -26 -26
-58 -26 -70 0 -13 -23 -50 -53 -85 -52 -61 -55 -63 -107 -66 -50 -3 -55 -1
-91 34 -22 21 -39 43 -39 50 0 6 -9 22 -20 36 -10 14 -23 52 -29 84 -5 32 -14
72 -20 87 -16 42 -14 248 3 283 8 16 17 49 21 74 9 57 70 174 113 217 27 27
40 33 77 33 38 0 49 -5 88 -45z"/>
<path d="M303 7551 c-11 -5 -29 -22 -40 -36 -10 -15 -28 -36 -40 -48 -55 -51
-7 -139 82 -152 102 -14 165 -90 87 -106 -18 -4 -41 -14 -51 -23 -10 -9 -22
-16 -27 -16 -6 0 -23 -14 -39 -30 -25 -26 -29 -39 -29 -85 0 -52 2 -56 47 -96
53 -48 61 -83 27 -114 -27 -25 -26 -79 3 -117 66 -88 87 -95 151 -50 36 24 54
39 109 90 14 13 21 14 35 5 36 -25 122 -73 129 -72 19 1 100 68 118 97 12 19
32 35 47 38 15 4 41 22 57 40 l29 34 -30 73 -29 72 21 17 c11 9 25 18 31 20
19 6 31 103 19 147 -6 22 -15 43 -20 46 -6 4 -17 22 -25 41 -14 33 -15 34 -73
34 -51 0 -62 -3 -74 -22 -13 -20 -17 -21 -32 -9 -9 7 -16 22 -16 33 0 11 -10
33 -22 48 -13 16 -31 41 -42 55 -25 36 -78 57 -122 49 -28 -5 -42 -2 -67 17
-25 18 -46 23 -112 26 -44 2 -90 -1 -102 -6z m182 -119 c21 -17 41 -22 85 -22
68 0 76 -7 130 -112 l37 -73 58 -3 c32 -2 63 2 68 7 19 19 45 12 51 -13 9 -36
-9 -73 -44 -91 -49 -25 -69 -110 -32 -137 39 -28 36 -38 -24 -99 -32 -32 -67
-59 -77 -59 -21 0 -55 17 -75 37 -7 7 -24 13 -37 13 -29 0 -126 -49 -143 -72
-7 -10 -20 -18 -28 -18 -22 0 -18 63 6 85 14 13 20 31 20 62 0 57 -33 93 -85
93 -49 0 -58 26 -19 57 21 17 38 22 59 19 18 -3 42 3 60 13 29 17 30 21 33 92
3 72 2 76 -30 111 -18 20 -49 44 -68 52 -32 15 -53 27 -88 49 -10 7 -11 12 0
24 18 22 107 13 143 -15z"/>
<path d="M727 6471 c-20 -15 -72 -64 -115 -107 l-79 -79 -6 -76 c-9 -104 8
-248 32 -274 11 -11 21 -43 24 -73 9 -77 50 -123 152 -171 22 -10 46 -26 54
-35 7 -9 26 -16 42 -16 23 0 30 5 35 28 13 60 15 62 46 62 18 0 42 10 60 25
16 14 37 25 47 25 9 0 52 34 95 76 54 53 83 75 96 71 21 -6 27 -2 63 41 27 33
27 36 27 175 0 129 -2 143 -21 163 -12 13 -24 37 -28 55 -5 24 -14 35 -36 42
-17 5 -51 29 -77 53 l-47 44 -164 0 -164 0 -36 -29z m229 -83 c13 -21 3 -100
-17 -140 -10 -20 -19 -44 -19 -52 0 -18 -30 -36 -58 -36 -10 0 -29 -11 -42
-25 -13 -14 -29 -25 -36 -25 -15 0 -80 -41 -106 -66 -9 -9 -24 -14 -33 -11
-12 5 -15 27 -15 122 0 102 2 117 20 135 11 11 26 20 33 20 6 0 35 20 62 45
50 44 50 44 127 45 50 0 79 -4 84 -12z m184 -56 c8 -7 26 -21 40 -31 24 -18
25 -25 28 -136 4 -124 -2 -145 -43 -145 -23 0 -44 19 -63 60 -7 14 -27 45 -46
70 -40 52 -44 86 -17 138 11 20 24 50 31 66 l11 29 22 -20 c12 -11 29 -25 37
-31z m-173 -254 c43 -19 93 -80 92 -114 0 -22 -11 -37 -41 -61 -22 -18 -48
-33 -58 -33 -9 0 -25 -9 -35 -20 -14 -15 -31 -20 -71 -20 -45 0 -57 -4 -78
-26 l-24 -27 -36 36 c-28 28 -36 44 -36 72 0 50 14 71 54 85 18 6 42 20 51 30
10 11 28 20 40 20 13 0 29 7 36 17 11 12 68 53 75 53 1 0 15 -6 31 -12z"/>
</g>
</svg>
